<svg width="335" height="52" viewBox="0 0 335 52" fill="none" xmlns="http://www.w3.org/2000/svg">
<path d="M143 14.5749L148.757 18L167.5 6.87449L186.243 18L192 14.5749L167.5 0L143 14.5749Z" fill="white"/>
<path d="M134.856 43.904C135.133 44.384 135.491 44.7413 135.928 44.976C136.376 45.2107 136.883 45.328 137.448 45.328C137.8 45.328 138.131 45.2747 138.44 45.168C138.749 45.0613 139.016 44.912 139.24 44.72C139.475 44.528 139.656 44.2987 139.784 44.032C139.923 43.7547 139.992 43.4453 139.992 43.104C139.992 42.7093 139.907 42.384 139.736 42.128C139.576 41.872 139.357 41.664 139.08 41.504C138.803 41.3333 138.488 41.1893 138.136 41.072C137.795 40.9547 137.437 40.8373 137.064 40.72C136.701 40.6027 136.344 40.4693 135.992 40.32C135.651 40.1707 135.341 39.9787 135.064 39.744C134.787 39.4987 134.563 39.1947 134.392 38.832C134.232 38.4693 134.152 38.0213 134.152 37.488C134.152 36.9867 134.248 36.544 134.44 36.16C134.643 35.7653 134.909 35.44 135.24 35.184C135.581 34.9173 135.971 34.72 136.408 34.592C136.845 34.4533 137.304 34.384 137.784 34.384C138.403 34.384 138.973 34.496 139.496 34.72C140.029 34.9333 140.488 35.296 140.872 35.808L139.96 36.464C139.693 36.0907 139.379 35.8133 139.016 35.632C138.664 35.44 138.243 35.344 137.752 35.344C137.411 35.344 137.085 35.392 136.776 35.488C136.467 35.5733 136.195 35.7067 135.96 35.888C135.736 36.0587 135.555 36.2773 135.416 36.544C135.277 36.8107 135.208 37.1253 135.208 37.488C135.208 38.0533 135.352 38.4907 135.64 38.8C135.928 39.0987 136.285 39.3387 136.712 39.52C137.149 39.6907 137.619 39.8453 138.12 39.984C138.632 40.112 139.101 40.288 139.528 40.512C139.965 40.736 140.328 41.0507 140.616 41.456C140.904 41.8507 141.048 42.4 141.048 43.104C141.048 43.616 140.952 44.0693 140.76 44.464C140.568 44.8587 140.307 45.1947 139.976 45.472C139.656 45.7387 139.283 45.9413 138.856 46.08C138.429 46.2187 137.987 46.288 137.528 46.288C136.781 46.288 136.093 46.16 135.464 45.904C134.835 45.6373 134.296 45.1947 133.848 44.576L134.856 43.904ZM149.699 44.608C149.325 45.1733 148.861 45.5787 148.307 45.824C147.763 46.0693 147.16 46.192 146.499 46.192C145.933 46.192 145.421 46.096 144.963 45.904C144.504 45.712 144.109 45.4453 143.779 45.104C143.448 44.752 143.192 44.3413 143.011 43.872C142.84 43.392 142.755 42.864 142.755 42.288C142.755 41.7333 142.845 41.2213 143.027 40.752C143.208 40.2827 143.464 39.8773 143.795 39.536C144.125 39.184 144.515 38.912 144.963 38.72C145.411 38.5173 145.907 38.416 146.451 38.416C147.016 38.416 147.512 38.5173 147.939 38.72C148.376 38.912 148.739 39.1733 149.027 39.504C149.325 39.824 149.549 40.192 149.699 40.608C149.848 41.024 149.923 41.4453 149.923 41.872V42.544H143.715C143.715 42.7467 143.752 43.008 143.827 43.328C143.912 43.6373 144.061 43.9413 144.275 44.24C144.488 44.5387 144.771 44.7947 145.123 45.008C145.485 45.2213 145.949 45.328 146.515 45.328C147.005 45.328 147.48 45.2107 147.939 44.976C148.397 44.7413 148.749 44.4213 148.995 44.016L149.699 44.608ZM148.963 41.68C148.963 41.3493 148.893 41.04 148.755 40.752C148.627 40.464 148.445 40.2133 148.211 40C147.987 39.776 147.715 39.6 147.395 39.472C147.085 39.344 146.755 39.28 146.403 39.28C145.88 39.28 145.443 39.3867 145.091 39.6C144.749 39.8133 144.477 40.0587 144.275 40.336C144.072 40.6133 143.928 40.8853 143.843 41.152C143.757 41.408 143.715 41.584 143.715 41.68H148.963ZM158.589 44.608C158.216 45.1733 157.752 45.5787 157.197 45.824C156.653 46.0693 156.051 46.192 155.389 46.192C154.824 46.192 154.312 46.096 153.853 45.904C153.395 45.712 153 45.4453 152.669 45.104C152.339 44.752 152.083 44.3413 151.901 43.872C151.731 43.392 151.645 42.864 151.645 42.288C151.645 41.7333 151.736 41.2213 151.917 40.752C152.099 40.2827 152.355 39.8773 152.685 39.536C153.016 39.184 153.405 38.912 153.853 38.72C154.301 38.5173 154.797 38.416 155.341 38.416C155.907 38.416 156.403 38.5173 156.829 38.72C157.267 38.912 157.629 39.1733 157.917 39.504C158.216 39.824 158.44 40.192 158.589 40.608C158.739 41.024 158.813 41.4453 158.813 41.872V42.544H152.605C152.605 42.7467 152.643 43.008 152.717 43.328C152.803 43.6373 152.952 43.9413 153.165 44.24C153.379 44.5387 153.661 44.7947 154.013 45.008C154.376 45.2213 154.84 45.328 155.405 45.328C155.896 45.328 156.371 45.2107 156.829 44.976C157.288 44.7413 157.64 44.4213 157.885 44.016L158.589 44.608ZM157.853 41.68C157.853 41.3493 157.784 41.04 157.645 40.752C157.517 40.464 157.336 40.2133 157.101 40C156.877 39.776 156.605 39.6 156.285 39.472C155.976 39.344 155.645 39.28 155.293 39.28C154.771 39.28 154.333 39.3867 153.981 39.6C153.64 39.8133 153.368 40.0587 153.165 40.336C152.963 40.6133 152.819 40.8853 152.733 41.152C152.648 41.408 152.605 41.584 152.605 41.68H157.853ZM165.268 34.672H166.852L170.98 44.176L175.108 34.672H176.612V46H175.556V36.016H175.524L171.204 46H170.74L166.356 36.016H166.324V46H165.268V34.672ZM178.911 42.304C178.911 41.7387 179.007 41.2213 179.199 40.752C179.391 40.272 179.658 39.8613 179.999 39.52C180.34 39.168 180.751 38.896 181.231 38.704C181.711 38.512 182.234 38.416 182.799 38.416C183.364 38.416 183.882 38.512 184.351 38.704C184.831 38.896 185.242 39.168 185.583 39.52C185.935 39.8613 186.207 40.272 186.399 40.752C186.591 41.2213 186.687 41.7387 186.687 42.304C186.687 42.8693 186.591 43.392 186.399 43.872C186.207 44.3413 185.935 44.752 185.583 45.104C185.242 45.4453 184.831 45.712 184.351 45.904C183.882 46.096 183.364 46.192 182.799 46.192C182.234 46.192 181.711 46.096 181.231 45.904C180.751 45.712 180.34 45.4453 179.999 45.104C179.658 44.752 179.391 44.3413 179.199 43.872C179.007 43.392 178.911 42.8693 178.911 42.304ZM179.871 42.304C179.871 42.72 179.935 43.1147 180.063 43.488C180.202 43.8507 180.399 44.1707 180.655 44.448C180.911 44.7147 181.22 44.928 181.583 45.088C181.946 45.248 182.351 45.328 182.799 45.328C183.247 45.328 183.652 45.248 184.015 45.088C184.378 44.928 184.687 44.7147 184.943 44.448C185.199 44.1707 185.391 43.8507 185.519 43.488C185.658 43.1147 185.727 42.72 185.727 42.304C185.727 41.888 185.658 41.4987 185.519 41.136C185.391 40.7627 185.199 40.4427 184.943 40.176C184.687 39.8987 184.378 39.68 184.015 39.52C183.652 39.36 183.247 39.28 182.799 39.28C182.351 39.28 181.946 39.36 181.583 39.52C181.22 39.68 180.911 39.8987 180.655 40.176C180.399 40.4427 180.202 40.7627 180.063 41.136C179.935 41.4987 179.871 41.888 179.871 42.304ZM188.827 40.688C188.827 40.5493 188.822 40.384 188.811 40.192C188.8 39.9893 188.79 39.7867 188.779 39.584C188.779 39.3813 188.774 39.1947 188.763 39.024C188.752 38.8427 188.747 38.704 188.747 38.608H189.707C189.718 38.8853 189.723 39.152 189.723 39.408C189.734 39.664 189.75 39.8293 189.771 39.904C190.016 39.4667 190.331 39.1093 190.715 38.832C191.099 38.5547 191.568 38.416 192.123 38.416C192.219 38.416 192.31 38.4267 192.395 38.448C192.491 38.4587 192.587 38.4747 192.683 38.496L192.571 39.44C192.443 39.3973 192.32 39.376 192.203 39.376C191.787 39.376 191.424 39.4453 191.115 39.584C190.816 39.712 190.566 39.8933 190.363 40.128C190.171 40.3627 190.027 40.64 189.931 40.96C189.835 41.2693 189.787 41.6053 189.787 41.968V46H188.827V40.688ZM200.402 44.608C200.028 45.1733 199.564 45.5787 199.01 45.824C198.466 46.0693 197.863 46.192 197.202 46.192C196.636 46.192 196.124 46.096 195.666 45.904C195.207 45.712 194.812 45.4453 194.482 45.104C194.151 44.752 193.895 44.3413 193.714 43.872C193.543 43.392 193.458 42.864 193.458 42.288C193.458 41.7333 193.548 41.2213 193.73 40.752C193.911 40.2827 194.167 39.8773 194.498 39.536C194.828 39.184 195.218 38.912 195.666 38.72C196.114 38.5173 196.61 38.416 197.154 38.416C197.719 38.416 198.215 38.5173 198.642 38.72C199.079 38.912 199.442 39.1733 199.73 39.504C200.028 39.824 200.252 40.192 200.402 40.608C200.551 41.024 200.626 41.4453 200.626 41.872V42.544H194.418C194.418 42.7467 194.455 43.008 194.53 43.328C194.615 43.6373 194.764 43.9413 194.978 44.24C195.191 44.5387 195.474 44.7947 195.826 45.008C196.188 45.2213 196.652 45.328 197.218 45.328C197.708 45.328 198.183 45.2107 198.642 44.976C199.1 44.7413 199.452 44.4213 199.698 44.016L200.402 44.608ZM199.666 41.68C199.666 41.3493 199.596 41.04 199.458 40.752C199.33 40.464 199.148 40.2133 198.914 40C198.69 39.776 198.418 39.6 198.098 39.472C197.788 39.344 197.458 39.28 197.106 39.28C196.583 39.28 196.146 39.3867 195.794 39.6C195.452 39.8133 195.18 40.0587 194.978 40.336C194.775 40.6133 194.631 40.8853 194.546 41.152C194.46 41.408 194.418 41.584 194.418 41.68H199.666Z" fill="white"/>
</svg>
