<svg width="125" height="17" viewBox="0 0 125 17" fill="none" xmlns="http://www.w3.org/2000/svg">
<path d="M14.26 15C13.34 15.48 12.38 15.8267 11.38 16.04C10.38 16.2533 9.36 16.36 8.32 16.36C7.21333 16.36 6.19333 16.1867 5.26 15.84C4.32667 15.4933 3.52 15 2.84 14.36C2.16 13.7067 1.62667 12.92 1.24 12C0.866667 11.08 0.68 10.0533 0.68 8.92C0.68 7.78667 0.866667 6.76 1.24 5.84C1.62667 4.92 2.16 4.14 2.84 3.5C3.52 2.84667 4.32667 2.34667 5.26 2C6.19333 1.65333 7.21333 1.48 8.32 1.48C9.45333 1.48 10.4933 1.62 11.44 1.9C12.4 2.16667 13.24 2.63333 13.96 3.3L11.76 5.7C11.3333 5.26 10.8533 4.92667 10.32 4.7C9.78667 4.47333 9.12 4.36 8.32 4.36C7.65333 4.36 7.04667 4.47333 6.5 4.7C5.96667 4.92667 5.50667 5.24667 5.12 5.66C4.73333 6.06 4.43333 6.54 4.22 7.1C4.02 7.66 3.92 8.26667 3.92 8.92C3.92 9.58667 4.02 10.2 4.22 10.76C4.43333 11.3067 4.73333 11.7867 5.12 12.2C5.50667 12.6 5.96667 12.9133 6.5 13.14C7.04667 13.3667 7.65333 13.48 8.32 13.48C9 13.48 9.58667 13.4067 10.08 13.26C10.5733 13.1 10.9667 12.94 11.26 12.78V10.48H8.72V7.6H14.26V15Z" fill="url(#paint0_linear_117_2898)"/>
<path d="M16.2664 11.14C16.2664 10.3667 16.4064 9.66667 16.6864 9.04C16.9664 8.41333 17.3464 7.88 17.8264 7.44C18.3197 6.98667 18.8931 6.64 19.5464 6.4C20.2131 6.16 20.9197 6.04 21.6664 6.04C22.4131 6.04 23.1131 6.16 23.7664 6.4C24.4331 6.64 25.0064 6.98667 25.4864 7.44C25.9797 7.88 26.3664 8.41333 26.6464 9.04C26.9264 9.66667 27.0664 10.3667 27.0664 11.14C27.0664 11.9133 26.9264 12.6133 26.6464 13.24C26.3664 13.8667 25.9797 14.4067 25.4864 14.86C25.0064 15.3 24.4331 15.64 23.7664 15.88C23.1131 16.12 22.4131 16.24 21.6664 16.24C20.9197 16.24 20.2131 16.12 19.5464 15.88C18.8931 15.64 18.3197 15.3 17.8264 14.86C17.3464 14.4067 16.9664 13.8667 16.6864 13.24C16.4064 12.6133 16.2664 11.9133 16.2664 11.14ZM19.2664 11.14C19.2664 11.8733 19.4731 12.4667 19.8864 12.92C20.3131 13.3733 20.9064 13.6 21.6664 13.6C22.4264 13.6 23.0131 13.3733 23.4264 12.92C23.8531 12.4667 24.0664 11.8733 24.0664 11.14C24.0664 10.4067 23.8531 9.81333 23.4264 9.36C23.0131 8.90667 22.4264 8.68 21.6664 8.68C20.9064 8.68 20.3131 8.90667 19.8864 9.36C19.4731 9.81333 19.2664 10.4067 19.2664 11.14ZM28.4734 11.14C28.4734 10.3667 28.6134 9.66667 28.8934 9.04C29.1734 8.41333 29.5534 7.88 30.0334 7.44C30.5268 6.98667 31.1001 6.64 31.7534 6.4C32.4201 6.16 33.1268 6.04 33.8734 6.04C34.6201 6.04 35.3201 6.16 35.9734 6.4C36.6401 6.64 37.2134 6.98667 37.6934 7.44C38.1868 7.88 38.5734 8.41333 38.8534 9.04C39.1334 9.66667 39.2734 10.3667 39.2734 11.14C39.2734 11.9133 39.1334 12.6133 38.8534 13.24C38.5734 13.8667 38.1868 14.4067 37.6934 14.86C37.2134 15.3 36.6401 15.64 35.9734 15.88C35.3201 16.12 34.6201 16.24 33.8734 16.24C33.1268 16.24 32.4201 16.12 31.7534 15.88C31.1001 15.64 30.5268 15.3 30.0334 14.86C29.5534 14.4067 29.1734 13.8667 28.8934 13.24C28.6134 12.6133 28.4734 11.9133 28.4734 11.14ZM31.4734 11.14C31.4734 11.8733 31.6801 12.4667 32.0934 12.92C32.5201 13.3733 33.1134 13.6 33.8734 13.6C34.6334 13.6 35.2201 13.3733 35.6334 12.92C36.0601 12.4667 36.2734 11.8733 36.2734 11.14C36.2734 10.4067 36.0601 9.81333 35.6334 9.36C35.2201 8.90667 34.6334 8.68 33.8734 8.68C33.1134 8.68 32.5201 8.90667 32.0934 9.36C31.6801 9.81333 31.4734 10.4067 31.4734 11.14Z" fill="url(#paint1_linear_117_2898)"/>
<path d="M51.2405 16H48.4805V14.72H48.4405C48.3205 14.8933 48.1605 15.0733 47.9605 15.26C47.7738 15.4333 47.5471 15.5933 47.2805 15.74C47.0271 15.8867 46.7405 16.0067 46.4205 16.1C46.1138 16.1933 45.7938 16.24 45.4605 16.24C44.7405 16.24 44.0871 16.12 43.5005 15.88C42.9138 15.6267 42.4071 15.28 41.9805 14.84C41.5671 14.3867 41.2471 13.8533 41.0205 13.24C40.7938 12.6267 40.6805 11.9533 40.6805 11.22C40.6805 10.54 40.7805 9.89333 40.9805 9.28C41.1938 8.65333 41.4871 8.1 41.8605 7.62C42.2471 7.14 42.7138 6.76 43.2605 6.48C43.8071 6.18667 44.4271 6.04 45.1205 6.04C45.7471 6.04 46.3271 6.14 46.8605 6.34C47.4071 6.52667 47.8538 6.85333 48.2005 7.32H48.2405V0.879999H51.2405V16ZM48.4805 11.14C48.4805 10.4067 48.2671 9.81333 47.8405 9.36C47.4271 8.90667 46.8405 8.68 46.0805 8.68C45.3205 8.68 44.7271 8.90667 44.3005 9.36C43.8871 9.81333 43.6805 10.4067 43.6805 11.14C43.6805 11.8733 43.8871 12.4667 44.3005 12.92C44.7271 13.3733 45.3205 13.6 46.0805 13.6C46.8405 13.6 47.4271 13.3733 47.8405 12.92C48.2671 12.4667 48.4805 11.8733 48.4805 11.14Z" fill="url(#paint2_linear_117_2898)"/>
<path d="M59.1761 8.92C59.1761 7.78667 59.3628 6.76 59.7361 5.84C60.1228 4.92 60.6561 4.14 61.3361 3.5C62.0161 2.84667 62.8228 2.34667 63.7561 2C64.6894 1.65333 65.7094 1.48 66.8161 1.48C67.9228 1.48 68.9428 1.65333 69.8761 2C70.8094 2.34667 71.6161 2.84667 72.2961 3.5C72.9761 4.14 73.5028 4.92 73.8761 5.84C74.2628 6.76 74.4561 7.78667 74.4561 8.92C74.4561 10.0533 74.2628 11.08 73.8761 12C73.5028 12.92 72.9761 13.7067 72.2961 14.36C71.6161 15 70.8094 15.4933 69.8761 15.84C68.9428 16.1867 67.9228 16.36 66.8161 16.36C65.7094 16.36 64.6894 16.1867 63.7561 15.84C62.8228 15.4933 62.0161 15 61.3361 14.36C60.6561 13.7067 60.1228 12.92 59.7361 12C59.3628 11.08 59.1761 10.0533 59.1761 8.92ZM62.4161 8.92C62.4161 9.58667 62.5161 10.2 62.7161 10.76C62.9294 11.3067 63.2294 11.7867 63.6161 12.2C64.0028 12.6 64.4628 12.9133 64.9961 13.14C65.5428 13.3667 66.1494 13.48 66.8161 13.48C67.4828 13.48 68.0828 13.3667 68.6161 13.14C69.1628 12.9133 69.6294 12.6 70.0161 12.2C70.4028 11.7867 70.6961 11.3067 70.8961 10.76C71.1094 10.2 71.2161 9.58667 71.2161 8.92C71.2161 8.26667 71.1094 7.66 70.8961 7.1C70.6961 6.54 70.4028 6.06 70.0161 5.66C69.6294 5.24667 69.1628 4.92667 68.6161 4.7C68.0828 4.47333 67.4828 4.36 66.8161 4.36C66.1494 4.36 65.5428 4.47333 64.9961 4.7C64.4628 4.92667 64.0028 5.24667 63.6161 5.66C63.2294 6.06 62.9294 6.54 62.7161 7.1C62.5161 7.66 62.4161 8.26667 62.4161 8.92Z" fill="url(#paint3_linear_117_2898)"/>
<path d="M76.1967 6.28H79.0767V7.6H79.1167C79.2101 7.41333 79.3434 7.22667 79.5167 7.04C79.6901 6.85333 79.8967 6.68667 80.1367 6.54C80.3767 6.39333 80.6501 6.27333 80.9567 6.18C81.2634 6.08667 81.5967 6.04 81.9567 6.04C82.6367 6.04 83.2367 6.18 83.7567 6.46C84.2901 6.74 84.6901 7.18 84.9567 7.78C85.3034 7.15333 85.7234 6.70667 86.2167 6.44C86.7101 6.17333 87.3167 6.04 88.0367 6.04C88.6901 6.04 89.2367 6.15333 89.6767 6.38C90.1301 6.59333 90.4834 6.89333 90.7367 7.28C91.0034 7.65333 91.1901 8.1 91.2967 8.62C91.4167 9.12667 91.4767 9.67333 91.4767 10.26V16H88.4767V10.34C88.4767 9.88667 88.3767 9.5 88.1767 9.18C87.9901 8.84667 87.6501 8.68 87.1567 8.68C86.8101 8.68 86.5167 8.74 86.2767 8.86C86.0501 8.96667 85.8634 9.12 85.7167 9.32C85.5834 9.52 85.4834 9.75333 85.4167 10.02C85.3634 10.2867 85.3367 10.5667 85.3367 10.86V16H82.3367V10.86C82.3367 10.6867 82.3301 10.4733 82.3167 10.22C82.3034 9.96667 82.2567 9.72667 82.1767 9.5C82.0967 9.27333 81.9634 9.08 81.7767 8.92C81.6034 8.76 81.3434 8.68 80.9967 8.68C80.6101 8.68 80.2967 8.75333 80.0567 8.9C79.8167 9.03333 79.6301 9.22 79.4967 9.46C79.3767 9.68667 79.2967 9.94667 79.2567 10.24C79.2167 10.5333 79.1967 10.84 79.1967 11.16V16H76.1967V6.28Z" fill="url(#paint4_linear_117_2898)"/>
<path d="M102.799 14.32C102.319 14.9333 101.712 15.4067 100.979 15.74C100.246 16.0733 99.4857 16.24 98.6991 16.24C97.9524 16.24 97.2457 16.12 96.5791 15.88C95.9257 15.64 95.3524 15.3 94.8591 14.86C94.3791 14.4067 93.9991 13.8667 93.7191 13.24C93.4391 12.6133 93.2991 11.9133 93.2991 11.14C93.2991 10.3667 93.4391 9.66667 93.7191 9.04C93.9991 8.41333 94.3791 7.88 94.8591 7.44C95.3524 6.98667 95.9257 6.64 96.5791 6.4C97.2457 6.16 97.9524 6.04 98.6991 6.04C99.3924 6.04 100.019 6.16 100.579 6.4C101.152 6.64 101.632 6.98667 102.019 7.44C102.419 7.88 102.726 8.41333 102.939 9.04C103.152 9.66667 103.259 10.3667 103.259 11.14V12.08H96.2991C96.4191 12.6533 96.6791 13.1133 97.0791 13.46C97.4791 13.7933 97.9724 13.96 98.5591 13.96C99.0524 13.96 99.4657 13.8533 99.7991 13.64C100.146 13.4133 100.446 13.1267 100.699 12.78L102.799 14.32ZM100.259 10.04C100.272 9.53333 100.106 9.1 99.7591 8.74C99.4124 8.38 98.9657 8.2 98.4191 8.2C98.0857 8.2 97.7924 8.25333 97.5391 8.36C97.2857 8.46667 97.0657 8.60667 96.8791 8.78C96.7057 8.94 96.5657 9.13333 96.4591 9.36C96.3657 9.57333 96.3124 9.8 96.2991 10.04H100.259Z" fill="url(#paint5_linear_117_2898)"/>
<path d="M105.083 6.28H107.963V7.6H108.003C108.097 7.41333 108.23 7.22667 108.403 7.04C108.577 6.85333 108.783 6.68667 109.023 6.54C109.263 6.39333 109.537 6.27333 109.843 6.18C110.15 6.08667 110.483 6.04 110.843 6.04C111.603 6.04 112.217 6.16 112.683 6.4C113.15 6.62667 113.51 6.94667 113.763 7.36C114.03 7.77333 114.21 8.26 114.303 8.82C114.397 9.38 114.443 9.98667 114.443 10.64V16H111.443V11.24C111.443 10.96 111.43 10.6733 111.403 10.38C111.39 10.0733 111.33 9.79333 111.223 9.54C111.13 9.28667 110.977 9.08 110.763 8.92C110.563 8.76 110.27 8.68 109.883 8.68C109.497 8.68 109.183 8.75333 108.943 8.9C108.703 9.03333 108.517 9.22 108.383 9.46C108.263 9.68667 108.183 9.94667 108.143 10.24C108.103 10.5333 108.083 10.84 108.083 11.16V16H105.083V6.28Z" fill="url(#paint6_linear_117_2898)"/>
<path d="M122.068 9.14C121.628 8.59333 121.048 8.32 120.328 8.32C120.074 8.32 119.828 8.38 119.588 8.5C119.348 8.62 119.228 8.82667 119.228 9.12C119.228 9.36 119.348 9.54 119.588 9.66C119.841 9.76667 120.154 9.86667 120.528 9.96C120.914 10.04 121.321 10.1333 121.748 10.24C122.188 10.3333 122.594 10.4867 122.968 10.7C123.354 10.9133 123.668 11.2067 123.908 11.58C124.161 11.94 124.288 12.4267 124.288 13.04C124.288 13.6667 124.148 14.1867 123.868 14.6C123.601 15 123.254 15.3267 122.828 15.58C122.401 15.82 121.921 15.9867 121.388 16.08C120.854 16.1867 120.328 16.24 119.808 16.24C119.128 16.24 118.441 16.1467 117.748 15.96C117.054 15.76 116.468 15.4133 115.988 14.92L117.808 12.9C118.088 13.2467 118.394 13.5133 118.728 13.7C119.074 13.8733 119.474 13.96 119.928 13.96C120.274 13.96 120.588 13.9133 120.868 13.82C121.148 13.7133 121.288 13.5267 121.288 13.26C121.288 13.0067 121.161 12.82 120.908 12.7C120.668 12.5667 120.354 12.46 119.968 12.38C119.594 12.2867 119.188 12.1933 118.748 12.1C118.321 11.9933 117.914 11.84 117.528 11.64C117.154 11.44 116.841 11.16 116.588 10.8C116.348 10.4267 116.228 9.93333 116.228 9.32C116.228 8.74667 116.341 8.25333 116.568 7.84C116.808 7.42667 117.114 7.08667 117.488 6.82C117.874 6.55333 118.314 6.36 118.808 6.24C119.301 6.10667 119.801 6.04 120.308 6.04C120.948 6.04 121.594 6.13333 122.248 6.32C122.901 6.50667 123.454 6.84 123.908 7.32L122.068 9.14Z" fill="url(#paint7_linear_117_2898)"/>
<defs>
<linearGradient id="paint0_linear_117_2898" x1="10.7759" y1="1.5" x2="10.7759" y2="16" gradientUnits="userSpaceOnUse">
<stop stop-color="#E9ADB7"/>
<stop offset="0.519309" stop-color="#DBCCE0"/>
<stop offset="1" stop-color="#B2BAE0"/>
</linearGradient>
<linearGradient id="paint1_linear_117_2898" x1="23.1681" y1="6" x2="23.1681" y2="16.5" gradientUnits="userSpaceOnUse">
<stop stop-color="#E7CDDA"/>
<stop offset="0.498005" stop-color="#D3CDE5"/>
<stop offset="1" stop-color="#AFB8DE"/>
</linearGradient>
<linearGradient id="paint2_linear_117_2898" x1="53.8793" y1="0.999999" x2="47.712" y2="16.3366" gradientUnits="userSpaceOnUse">
<stop offset="0.0104167" stop-color="#FAE9E8"/>
<stop offset="0.224422" stop-color="white"/>
<stop offset="0.504867" stop-color="#E6DCEC"/>
<stop offset="1" stop-color="#AAADD5"/>
</linearGradient>
<linearGradient id="paint3_linear_117_2898" x1="62.5" y1="4.5" x2="62.5" y2="16" gradientUnits="userSpaceOnUse">
<stop stop-color="white"/>
<stop offset="1" stop-color="#BDAFE3"/>
</linearGradient>
<linearGradient id="paint4_linear_117_2898" x1="62.5" y1="5" x2="62.5" y2="16" gradientUnits="userSpaceOnUse">
<stop stop-color="white"/>
<stop offset="0.436872" stop-color="#CBB4D7"/>
<stop offset="1" stop-color="#9B8DBB"/>
</linearGradient>
<linearGradient id="paint5_linear_117_2898" x1="62.5" y1="5" x2="62.5" y2="15" gradientUnits="userSpaceOnUse">
<stop stop-color="white"/>
<stop offset="0.498594" stop-color="#C3A9CF"/>
<stop offset="1" stop-color="#9786B4"/>
</linearGradient>
<linearGradient id="paint6_linear_117_2898" x1="62.5" y1="4.5" x2="62.5" y2="16" gradientUnits="userSpaceOnUse">
<stop stop-color="white"/>
<stop offset="0.489583" stop-color="#D1B8D8"/>
<stop offset="1" stop-color="#BDAFE3"/>
</linearGradient>
<linearGradient id="paint7_linear_117_2898" x1="63" y1="4" x2="62.5" y2="16" gradientUnits="userSpaceOnUse">
<stop stop-color="white"/>
<stop offset="0.489583" stop-color="#D1B8D8"/>
<stop offset="1" stop-color="#BDAFE3"/>
</linearGradient>
</defs>
</svg>
